<svg width="85" height="44" viewBox="0 0 85 44" fill="none" xmlns="http://www.w3.org/2000/svg">
<path d="M13.498 10.8047C13.498 11.6966 13.3418 12.4779 13.0293 13.1484C12.7233 13.8125 12.3001 14.3659 11.7598 14.8086C11.2259 15.2513 10.5977 15.5833 9.875 15.8047C9.15885 16.026 8.38737 16.1367 7.56055 16.1367C7.24154 16.1367 6.88997 16.0944 6.50586 16.0098C6.12826 15.9251 5.74414 15.821 5.35352 15.6973C4.96289 15.5671 4.58529 15.4303 4.2207 15.2871C3.86263 15.1374 3.54362 14.9974 3.26367 14.8672L3.69336 10.8438C4.24674 11.1758 4.85872 11.4297 5.5293 11.6055C6.20638 11.7747 6.87044 11.8594 7.52148 11.8594C7.64518 11.8594 7.79492 11.8561 7.9707 11.8496C8.14648 11.8366 8.3125 11.8073 8.46875 11.7617C8.63151 11.7096 8.76823 11.6348 8.87891 11.5371C8.98958 11.4395 9.04492 11.2995 9.04492 11.1172C9.04492 10.9935 9.00586 10.8893 8.92773 10.8047C8.84961 10.7135 8.7487 10.6419 8.625 10.5898C8.5013 10.5312 8.36133 10.4889 8.20508 10.4629C8.04883 10.4303 7.89583 10.4076 7.74609 10.3945C7.59635 10.3815 7.45638 10.375 7.32617 10.375C7.19596 10.375 7.0918 10.375 7.01367 10.375C6.45378 10.375 5.94271 10.2773 5.48047 10.082C5.02474 9.88672 4.63086 9.61654 4.29883 9.27148C3.97331 8.91992 3.7194 8.50651 3.53711 8.03125C3.35482 7.54948 3.26367 7.02865 3.26367 6.46875C3.26367 5.70052 3.41667 5.01367 3.72266 4.4082C4.03516 3.79622 4.44857 3.27865 4.96289 2.85547C5.48372 2.42578 6.07943 2.09701 6.75 1.86914C7.42057 1.64128 8.11393 1.52734 8.83008 1.52734C9.14909 1.52734 9.47786 1.54036 9.81641 1.56641C10.1549 1.58594 10.4902 1.625 10.8223 1.68359C11.1608 1.74219 11.4896 1.81706 11.8086 1.9082C12.1276 1.99935 12.4303 2.11328 12.7168 2.25L12.3457 6.21484C11.903 6.0651 11.4375 5.94141 10.9492 5.84375C10.4674 5.73958 9.99544 5.6875 9.5332 5.6875C9.44857 5.6875 9.33789 5.69076 9.20117 5.69727C9.07096 5.69727 8.93099 5.70703 8.78125 5.72656C8.63802 5.73958 8.49154 5.76237 8.3418 5.79492C8.19206 5.82747 8.05859 5.87305 7.94141 5.93164C7.82422 5.98372 7.72982 6.05534 7.6582 6.14648C7.58659 6.23763 7.55404 6.34505 7.56055 6.46875C7.56706 6.61198 7.61914 6.72917 7.7168 6.82031C7.82096 6.90495 7.95117 6.97331 8.10742 7.02539C8.27018 7.07096 8.44596 7.10352 8.63477 7.12305C8.83008 7.14258 9.02214 7.1556 9.21094 7.16211C9.39974 7.16211 9.57552 7.16211 9.73828 7.16211C9.90104 7.1556 10.0345 7.15885 10.1387 7.17188C10.6595 7.20443 11.1283 7.3151 11.5449 7.50391C11.9616 7.69271 12.3132 7.94336 12.5996 8.25586C12.8926 8.56836 13.1139 8.94271 13.2637 9.37891C13.4199 9.80859 13.498 10.2839 13.498 10.8047ZM31.1934 9.37891C31.1934 10.3099 31.1641 11.2376 31.1055 12.1621C31.0469 13.0866 30.9785 14.0143 30.9004 14.9453L25.8809 15.1797C26.0306 14.0469 26.1641 12.9141 26.2812 11.7812C26.4049 10.6419 26.4668 9.5026 26.4668 8.36328C26.4668 8.29167 26.4635 8.16797 26.457 7.99219C26.4505 7.8099 26.4375 7.60482 26.418 7.37695C26.4049 7.14909 26.3822 6.91471 26.3496 6.67383C26.3236 6.42643 26.2845 6.20182 26.2324 6C26.1868 5.79167 26.1283 5.6224 26.0566 5.49219C25.985 5.36198 25.9004 5.29688 25.8027 5.29688C25.5749 5.29688 25.3958 5.38477 25.2656 5.56055C25.1354 5.72982 25.0378 5.9349 24.9727 6.17578C24.9141 6.41667 24.8783 6.66406 24.8652 6.91797C24.8522 7.16536 24.8457 7.36719 24.8457 7.52344C24.8457 7.79688 24.8522 8.07031 24.8652 8.34375C24.8783 8.61719 24.8848 8.89714 24.8848 9.18359C24.8848 10.1927 24.8587 11.1986 24.8066 12.2012C24.7611 13.2038 24.7025 14.2096 24.6309 15.2188L20.002 15.3945C20.1517 14.2617 20.2819 13.1322 20.3926 12.0059C20.5098 10.873 20.5684 9.73698 20.5684 8.59766C20.5684 8.52604 20.5651 8.39583 20.5586 8.20703C20.5521 8.01823 20.5391 7.80664 20.5195 7.57227C20.5065 7.33789 20.4837 7.09375 20.4512 6.83984C20.4186 6.58594 20.3763 6.35482 20.3242 6.14648C20.2786 5.93164 20.2201 5.75586 20.1484 5.61914C20.0768 5.48242 19.9889 5.41406 19.8848 5.41406C19.722 5.41406 19.5853 5.47917 19.4746 5.60938C19.3639 5.73307 19.2728 5.89583 19.2012 6.09766C19.1361 6.29948 19.084 6.52409 19.0449 6.77148C19.0124 7.01237 18.9863 7.25 18.9668 7.48438C18.9538 7.71875 18.944 7.93685 18.9375 8.13867C18.9375 8.33398 18.9342 8.48047 18.9277 8.57812L18.7129 15.707H13.791C13.8952 14.6068 13.9993 13.5033 14.1035 12.3965C14.2142 11.2897 14.3086 10.1862 14.3867 9.08594C14.4714 7.97917 14.5397 6.8724 14.5918 5.76562C14.6439 4.65885 14.6699 3.55208 14.6699 2.44531L19.3184 2.25L19.2988 3.38281C19.4421 3.20052 19.6048 3.01823 19.7871 2.83594C19.9694 2.64714 20.1615 2.48112 20.3633 2.33789C20.5716 2.18815 20.7897 2.06771 21.0176 1.97656C21.252 1.88542 21.4928 1.83984 21.7402 1.83984C22.0592 1.83984 22.3457 1.86589 22.5996 1.91797C22.8535 1.96354 23.0814 2.04492 23.2832 2.16211C23.4915 2.2793 23.6738 2.44206 23.8301 2.65039C23.9863 2.85221 24.123 3.10938 24.2402 3.42188C24.4486 3.19401 24.6569 2.98242 24.8652 2.78711C25.0801 2.5918 25.3047 2.42578 25.5391 2.28906C25.7734 2.14583 26.0273 2.03516 26.3008 1.95703C26.5742 1.87891 26.877 1.83984 27.209 1.83984C27.8405 1.83984 28.3776 1.96354 28.8203 2.21094C29.263 2.45182 29.6309 2.77409 29.9238 3.17773C30.2233 3.58138 30.4544 4.04362 30.6172 4.56445C30.7865 5.08529 30.9134 5.62565 30.998 6.18555C31.0827 6.74544 31.1348 7.30208 31.1543 7.85547C31.1803 8.40885 31.1934 8.91667 31.1934 9.37891ZM44.4062 15.1602L39.5625 15.7852L38.9766 13.5781H36.75L36.2617 15.7852L31.2812 15.2969L35.168 2.28906L40.5977 2.01562L44.4062 15.1602ZM38.625 10.5898L37.8828 7.19141L37.1602 10.5898H38.625ZM56.0566 6.58594C56.0566 7.09375 56.0111 7.55599 55.9199 7.97266C55.8353 8.38281 55.6986 8.76042 55.5098 9.10547C55.321 9.45052 55.0768 9.76953 54.7773 10.0625C54.4779 10.3555 54.1165 10.6354 53.6934 10.9023L56.0176 15.043L51.623 15.9023L50.1191 11.7422L48.9082 11.7812L48.7324 15.8438H44.5332C44.5658 14.3594 44.5951 12.8815 44.6211 11.4102C44.6536 9.9388 44.6895 8.46094 44.7285 6.97656C44.7415 6.22786 44.7546 5.48568 44.7676 4.75C44.7806 4.01432 44.8066 3.27214 44.8457 2.52344C45.3014 2.35417 45.7507 2.21419 46.1934 2.10352C46.6361 1.99284 47.0788 1.9082 47.5215 1.84961C47.9707 1.78451 48.4232 1.74219 48.8789 1.72266C49.3411 1.69661 49.8132 1.68359 50.2949 1.68359C51.0371 1.68359 51.7533 1.78776 52.4434 1.99609C53.14 2.19792 53.7552 2.50391 54.2891 2.91406C54.8229 3.32422 55.2493 3.83529 55.5684 4.44727C55.8939 5.05924 56.0566 5.77214 56.0566 6.58594ZM51.6816 6.89844C51.6816 6.625 51.6426 6.37435 51.5645 6.14648C51.4928 5.91862 51.3822 5.72331 51.2324 5.56055C51.0892 5.39128 50.9069 5.26107 50.6855 5.16992C50.4707 5.07227 50.2168 5.02344 49.9238 5.02344C49.7936 5.02344 49.6667 5.0332 49.543 5.05273C49.4193 5.06576 49.2988 5.08854 49.1816 5.12109L49.0254 8.75391H49.2598C49.5397 8.75391 49.8229 8.7181 50.1094 8.64648C50.4023 8.57487 50.6628 8.46419 50.8906 8.31445C51.125 8.16471 51.3138 7.97266 51.457 7.73828C51.6068 7.50391 51.6816 7.22396 51.6816 6.89844ZM67.082 2.23047L66.9844 6.37109L64.0742 6.48828L63.7227 15.5508L59.6016 15.7656L59.2305 6.70312L56.3203 6.85938L56.4375 2.25L67.082 2.23047Z" fill="#2C2C2C"/>
<path d="M13.498 30.8047C13.498 31.6966 13.3418 32.4779 13.0293 33.1484C12.7233 33.8125 12.3001 34.3659 11.7598 34.8086C11.2259 35.2513 10.5977 35.5833 9.875 35.8047C9.15885 36.026 8.38737 36.1367 7.56055 36.1367C7.24154 36.1367 6.88997 36.0944 6.50586 36.0098C6.12826 35.9251 5.74414 35.821 5.35352 35.6973C4.96289 35.5671 4.58529 35.4303 4.2207 35.2871C3.86263 35.1374 3.54362 34.9974 3.26367 34.8672L3.69336 30.8438C4.24674 31.1758 4.85872 31.4297 5.5293 31.6055C6.20638 31.7747 6.87044 31.8594 7.52148 31.8594C7.64518 31.8594 7.79492 31.8561 7.9707 31.8496C8.14648 31.8366 8.3125 31.8073 8.46875 31.7617C8.63151 31.7096 8.76823 31.6348 8.87891 31.5371C8.98958 31.4395 9.04492 31.2995 9.04492 31.1172C9.04492 30.9935 9.00586 30.8893 8.92773 30.8047C8.84961 30.7135 8.7487 30.6419 8.625 30.5898C8.5013 30.5312 8.36133 30.4889 8.20508 30.4629C8.04883 30.4303 7.89583 30.4076 7.74609 30.3945C7.59635 30.3815 7.45638 30.375 7.32617 30.375C7.19596 30.375 7.0918 30.375 7.01367 30.375C6.45378 30.375 5.94271 30.2773 5.48047 30.082C5.02474 29.8867 4.63086 29.6165 4.29883 29.2715C3.97331 28.9199 3.7194 28.5065 3.53711 28.0312C3.35482 27.5495 3.26367 27.0286 3.26367 26.4688C3.26367 25.7005 3.41667 25.0137 3.72266 24.4082C4.03516 23.7962 4.44857 23.2786 4.96289 22.8555C5.48372 22.4258 6.07943 22.097 6.75 21.8691C7.42057 21.6413 8.11393 21.5273 8.83008 21.5273C9.14909 21.5273 9.47786 21.5404 9.81641 21.5664C10.1549 21.5859 10.4902 21.625 10.8223 21.6836C11.1608 21.7422 11.4896 21.8171 11.8086 21.9082C12.1276 21.9993 12.4303 22.1133 12.7168 22.25L12.3457 26.2148C11.903 26.0651 11.4375 25.9414 10.9492 25.8438C10.4674 25.7396 9.99544 25.6875 9.5332 25.6875C9.44857 25.6875 9.33789 25.6908 9.20117 25.6973C9.07096 25.6973 8.93099 25.707 8.78125 25.7266C8.63802 25.7396 8.49154 25.7624 8.3418 25.7949C8.19206 25.8275 8.05859 25.873 7.94141 25.9316C7.82422 25.9837 7.72982 26.0553 7.6582 26.1465C7.58659 26.2376 7.55404 26.3451 7.56055 26.4688C7.56706 26.612 7.61914 26.7292 7.7168 26.8203C7.82096 26.9049 7.95117 26.9733 8.10742 27.0254C8.27018 27.071 8.44596 27.1035 8.63477 27.123C8.83008 27.1426 9.02214 27.1556 9.21094 27.1621C9.39974 27.1621 9.57552 27.1621 9.73828 27.1621C9.90104 27.1556 10.0345 27.1589 10.1387 27.1719C10.6595 27.2044 11.1283 27.3151 11.5449 27.5039C11.9616 27.6927 12.3132 27.9434 12.5996 28.2559C12.8926 28.5684 13.1139 28.9427 13.2637 29.3789C13.4199 29.8086 13.498 30.2839 13.498 30.8047ZM25.7148 35.6094L20.832 35.8438L20.793 31.7227H18.5469L18.4102 36H14.0352L14.4062 22.2695L19.0547 22.4844L18.7617 29.4961H20.9297L20.9492 22.1523L25.4023 22.2695L25.7148 35.6094ZM38.7129 28.5195C38.7129 29.112 38.6445 29.6849 38.5078 30.2383C38.3711 30.7852 38.1725 31.2995 37.9121 31.7812C37.6582 32.263 37.3457 32.7057 36.9746 33.1094C36.61 33.5065 36.1966 33.8483 35.7344 34.1348C35.2786 34.4212 34.7806 34.6458 34.2402 34.8086C33.6999 34.9648 33.127 35.043 32.5215 35.043C31.9355 35.043 31.3757 34.9681 30.8418 34.8184C30.3145 34.6686 29.8197 34.4603 29.3574 34.1934C28.8952 33.9199 28.4753 33.5944 28.0977 33.2168C27.7266 32.8327 27.4076 32.4095 27.1406 31.9473C26.8802 31.4785 26.6751 30.9772 26.5254 30.4434C26.3822 29.9095 26.3105 29.3529 26.3105 28.7734C26.3105 28.207 26.3789 27.6536 26.5156 27.1133C26.6523 26.5664 26.8477 26.0521 27.1016 25.5703C27.362 25.0885 27.6745 24.6458 28.0391 24.2422C28.4036 23.8385 28.8105 23.4902 29.2598 23.1973C29.7155 22.9043 30.207 22.6764 30.7344 22.5137C31.2617 22.3509 31.8184 22.2695 32.4043 22.2695C33.3483 22.2695 34.2077 22.416 34.9824 22.709C35.7637 23.002 36.4277 23.4219 36.9746 23.9688C37.528 24.5091 37.9544 25.1667 38.2539 25.9414C38.5599 26.7096 38.7129 27.569 38.7129 28.5195ZM34.377 28.7734C34.377 28.4935 34.3346 28.2233 34.25 27.9629C34.1719 27.696 34.0547 27.4616 33.8984 27.2598C33.7422 27.0514 33.5469 26.8854 33.3125 26.7617C33.0846 26.6315 32.821 26.5664 32.5215 26.5664C32.2155 26.5664 31.9421 26.6217 31.7012 26.7324C31.4603 26.8431 31.252 26.9961 31.0762 27.1914C30.9069 27.3802 30.7767 27.6048 30.6855 27.8652C30.5944 28.1191 30.5488 28.3893 30.5488 28.6758C30.5488 28.9492 30.5879 29.2227 30.666 29.4961C30.7441 29.7695 30.8613 30.0169 31.0176 30.2383C31.1738 30.4596 31.3659 30.6387 31.5938 30.7754C31.8281 30.9121 32.0983 30.9805 32.4043 30.9805C32.7103 30.9805 32.9837 30.9219 33.2246 30.8047C33.472 30.681 33.6803 30.5182 33.8496 30.3164C34.0189 30.1081 34.1491 29.8704 34.2402 29.6035C34.3314 29.3366 34.377 29.0599 34.377 28.7734ZM50.7734 26.9961C50.7734 27.6276 50.679 28.1875 50.4902 28.6758C50.3014 29.1641 50.041 29.5938 49.709 29.9648C49.3835 30.3294 48.9993 30.6387 48.5566 30.8926C48.1139 31.14 47.6387 31.3451 47.1309 31.5078C46.6296 31.6641 46.1087 31.7812 45.5684 31.8594C45.028 31.931 44.4974 31.9701 43.9766 31.9766V36.1367H39.4258C39.4258 35.3945 39.4258 34.6719 39.4258 33.9688C39.4323 33.2656 39.4355 32.569 39.4355 31.8789C39.4421 31.1823 39.4453 30.4824 39.4453 29.7793C39.4518 29.0762 39.4583 28.3503 39.4648 27.6016C39.4779 26.8073 39.4811 26.013 39.4746 25.2188C39.4681 24.4245 39.4844 23.6237 39.5234 22.8164C40.3568 22.569 41.1901 22.3835 42.0234 22.2598C42.8568 22.1361 43.7161 22.0742 44.6016 22.0742C45.1029 22.0742 45.6042 22.1165 46.1055 22.2012C46.6068 22.2793 47.0853 22.4062 47.541 22.582C48.0033 22.7578 48.4297 22.9792 48.8203 23.2461C49.2174 23.5065 49.5592 23.819 49.8457 24.1836C50.1322 24.5482 50.3568 24.9648 50.5195 25.4336C50.6888 25.9023 50.7734 26.4232 50.7734 26.9961ZM46.4375 27.3281C46.4375 26.9049 46.3073 26.5762 46.0469 26.3418C45.793 26.1009 45.4609 25.9805 45.0508 25.9805C44.9141 25.9805 44.7708 25.9935 44.6211 26.0195C44.4779 26.0391 44.3411 26.0651 44.2109 26.0977L44.0938 28.9492C44.1849 28.9622 44.2728 28.9688 44.3574 28.9688C44.4421 28.9688 44.5299 28.9688 44.6211 28.9688C44.8555 28.9688 45.0801 28.9297 45.2949 28.8516C45.5163 28.7734 45.7116 28.6628 45.8809 28.5195C46.0501 28.3698 46.1836 28.1973 46.2812 28.002C46.3854 27.8001 46.4375 27.5755 46.4375 27.3281Z" fill="#F28123"/>
<path d="M56.2054 23.65L54.9423 30.8V33.66H56.2054V42.24H68.8365V33.66H73.8889V42.24H76.4152V33.66H77.6783V30.8L76.4152 23.65H56.2054ZM66.3103 39.38H58.7316V33.66H66.3103V39.38ZM57.519 30.8L58.2769 26.51H74.3437L75.1015 30.8H57.519ZM76.4152 22.22H56.2054V19.36H76.4152V22.22ZM82.7307 23.65V32.23H80.2045V23.65H82.7307ZM80.2045 35.09H82.7307V37.95H80.2045V35.09Z" fill="#2C2C2C"/>
</svg>
