<svg width="85" height="44" viewBox="0 0 85 44" fill="none" xmlns="http://www.w3.org/2000/svg">
<path d="M13.498 11.8047C13.498 12.6966 13.3418 13.4779 13.0293 14.1484C12.7233 14.8125 12.3001 15.3659 11.7598 15.8086C11.2259 16.2513 10.5977 16.5833 9.875 16.8047C9.15885 17.026 8.38737 17.1367 7.56055 17.1367C7.24154 17.1367 6.88997 17.0944 6.50586 17.0098C6.12826 16.9251 5.74414 16.821 5.35352 16.6973C4.96289 16.5671 4.58529 16.4303 4.2207 16.2871C3.86263 16.1374 3.54362 15.9974 3.26367 15.8672L3.69336 11.8438C4.24674 12.1758 4.85872 12.4297 5.5293 12.6055C6.20638 12.7747 6.87044 12.8594 7.52148 12.8594C7.64518 12.8594 7.79492 12.8561 7.9707 12.8496C8.14648 12.8366 8.3125 12.8073 8.46875 12.7617C8.63151 12.7096 8.76823 12.6348 8.87891 12.5371C8.98958 12.4395 9.04492 12.2995 9.04492 12.1172C9.04492 11.9935 9.00586 11.8893 8.92773 11.8047C8.84961 11.7135 8.7487 11.6419 8.625 11.5898C8.5013 11.5312 8.36133 11.4889 8.20508 11.4629C8.04883 11.4303 7.89583 11.4076 7.74609 11.3945C7.59635 11.3815 7.45638 11.375 7.32617 11.375C7.19596 11.375 7.0918 11.375 7.01367 11.375C6.45378 11.375 5.94271 11.2773 5.48047 11.082C5.02474 10.8867 4.63086 10.6165 4.29883 10.2715C3.97331 9.91992 3.7194 9.50651 3.53711 9.03125C3.35482 8.54948 3.26367 8.02865 3.26367 7.46875C3.26367 6.70052 3.41667 6.01367 3.72266 5.4082C4.03516 4.79622 4.44857 4.27865 4.96289 3.85547C5.48372 3.42578 6.07943 3.09701 6.75 2.86914C7.42057 2.64128 8.11393 2.52734 8.83008 2.52734C9.14909 2.52734 9.47786 2.54036 9.81641 2.56641C10.1549 2.58594 10.4902 2.625 10.8223 2.68359C11.1608 2.74219 11.4896 2.81706 11.8086 2.9082C12.1276 2.99935 12.4303 3.11328 12.7168 3.25L12.3457 7.21484C11.903 7.0651 11.4375 6.94141 10.9492 6.84375C10.4674 6.73958 9.99544 6.6875 9.5332 6.6875C9.44857 6.6875 9.33789 6.69076 9.20117 6.69727C9.07096 6.69727 8.93099 6.70703 8.78125 6.72656C8.63802 6.73958 8.49154 6.76237 8.3418 6.79492C8.19206 6.82747 8.05859 6.87305 7.94141 6.93164C7.82422 6.98372 7.72982 7.05534 7.6582 7.14648C7.58659 7.23763 7.55404 7.34505 7.56055 7.46875C7.56706 7.61198 7.61914 7.72917 7.7168 7.82031C7.82096 7.90495 7.95117 7.97331 8.10742 8.02539C8.27018 8.07096 8.44596 8.10352 8.63477 8.12305C8.83008 8.14258 9.02214 8.1556 9.21094 8.16211C9.39974 8.16211 9.57552 8.16211 9.73828 8.16211C9.90104 8.1556 10.0345 8.15885 10.1387 8.17188C10.6595 8.20443 11.1283 8.3151 11.5449 8.50391C11.9616 8.69271 12.3132 8.94336 12.5996 9.25586C12.8926 9.56836 13.1139 9.94271 13.2637 10.3789C13.4199 10.8086 13.498 11.2839 13.498 11.8047ZM31.1934 10.3789C31.1934 11.3099 31.1641 12.2376 31.1055 13.1621C31.0469 14.0866 30.9785 15.0143 30.9004 15.9453L25.8809 16.1797C26.0306 15.0469 26.1641 13.9141 26.2812 12.7812C26.4049 11.6419 26.4668 10.5026 26.4668 9.36328C26.4668 9.29167 26.4635 9.16797 26.457 8.99219C26.4505 8.8099 26.4375 8.60482 26.418 8.37695C26.4049 8.14909 26.3822 7.91471 26.3496 7.67383C26.3236 7.42643 26.2845 7.20182 26.2324 7C26.1868 6.79167 26.1283 6.6224 26.0566 6.49219C25.985 6.36198 25.9004 6.29688 25.8027 6.29688C25.5749 6.29688 25.3958 6.38477 25.2656 6.56055C25.1354 6.72982 25.0378 6.9349 24.9727 7.17578C24.9141 7.41667 24.8783 7.66406 24.8652 7.91797C24.8522 8.16536 24.8457 8.36719 24.8457 8.52344C24.8457 8.79688 24.8522 9.07031 24.8652 9.34375C24.8783 9.61719 24.8848 9.89714 24.8848 10.1836C24.8848 11.1927 24.8587 12.1986 24.8066 13.2012C24.7611 14.2038 24.7025 15.2096 24.6309 16.2188L20.002 16.3945C20.1517 15.2617 20.2819 14.1322 20.3926 13.0059C20.5098 11.873 20.5684 10.737 20.5684 9.59766C20.5684 9.52604 20.5651 9.39583 20.5586 9.20703C20.5521 9.01823 20.5391 8.80664 20.5195 8.57227C20.5065 8.33789 20.4837 8.09375 20.4512 7.83984C20.4186 7.58594 20.3763 7.35482 20.3242 7.14648C20.2786 6.93164 20.2201 6.75586 20.1484 6.61914C20.0768 6.48242 19.9889 6.41406 19.8848 6.41406C19.722 6.41406 19.5853 6.47917 19.4746 6.60938C19.3639 6.73307 19.2728 6.89583 19.2012 7.09766C19.1361 7.29948 19.084 7.52409 19.0449 7.77148C19.0124 8.01237 18.9863 8.25 18.9668 8.48438C18.9538 8.71875 18.944 8.93685 18.9375 9.13867C18.9375 9.33398 18.9342 9.48047 18.9277 9.57812L18.7129 16.707H13.791C13.8952 15.6068 13.9993 14.5033 14.1035 13.3965C14.2142 12.2897 14.3086 11.1862 14.3867 10.0859C14.4714 8.97917 14.5397 7.8724 14.5918 6.76562C14.6439 5.65885 14.6699 4.55208 14.6699 3.44531L19.3184 3.25L19.2988 4.38281C19.4421 4.20052 19.6048 4.01823 19.7871 3.83594C19.9694 3.64714 20.1615 3.48112 20.3633 3.33789C20.5716 3.18815 20.7897 3.06771 21.0176 2.97656C21.252 2.88542 21.4928 2.83984 21.7402 2.83984C22.0592 2.83984 22.3457 2.86589 22.5996 2.91797C22.8535 2.96354 23.0814 3.04492 23.2832 3.16211C23.4915 3.2793 23.6738 3.44206 23.8301 3.65039C23.9863 3.85221 24.123 4.10938 24.2402 4.42188C24.4486 4.19401 24.6569 3.98242 24.8652 3.78711C25.0801 3.5918 25.3047 3.42578 25.5391 3.28906C25.7734 3.14583 26.0273 3.03516 26.3008 2.95703C26.5742 2.87891 26.877 2.83984 27.209 2.83984C27.8405 2.83984 28.3776 2.96354 28.8203 3.21094C29.263 3.45182 29.6309 3.77409 29.9238 4.17773C30.2233 4.58138 30.4544 5.04362 30.6172 5.56445C30.7865 6.08529 30.9134 6.62565 30.998 7.18555C31.0827 7.74544 31.1348 8.30208 31.1543 8.85547C31.1803 9.40885 31.1934 9.91667 31.1934 10.3789ZM44.4062 16.1602L39.5625 16.7852L38.9766 14.5781H36.75L36.2617 16.7852L31.2812 16.2969L35.168 3.28906L40.5977 3.01562L44.4062 16.1602ZM38.625 11.5898L37.8828 8.19141L37.1602 11.5898H38.625ZM56.0566 7.58594C56.0566 8.09375 56.0111 8.55599 55.9199 8.97266C55.8353 9.38281 55.6986 9.76042 55.5098 10.1055C55.321 10.4505 55.0768 10.7695 54.7773 11.0625C54.4779 11.3555 54.1165 11.6354 53.6934 11.9023L56.0176 16.043L51.623 16.9023L50.1191 12.7422L48.9082 12.7812L48.7324 16.8438H44.5332C44.5658 15.3594 44.5951 13.8815 44.6211 12.4102C44.6536 10.9388 44.6895 9.46094 44.7285 7.97656C44.7415 7.22786 44.7546 6.48568 44.7676 5.75C44.7806 5.01432 44.8066 4.27214 44.8457 3.52344C45.3014 3.35417 45.7507 3.21419 46.1934 3.10352C46.6361 2.99284 47.0788 2.9082 47.5215 2.84961C47.9707 2.78451 48.4232 2.74219 48.8789 2.72266C49.3411 2.69661 49.8132 2.68359 50.2949 2.68359C51.0371 2.68359 51.7533 2.78776 52.4434 2.99609C53.14 3.19792 53.7552 3.50391 54.2891 3.91406C54.8229 4.32422 55.2493 4.83529 55.5684 5.44727C55.8939 6.05924 56.0566 6.77214 56.0566 7.58594ZM51.6816 7.89844C51.6816 7.625 51.6426 7.37435 51.5645 7.14648C51.4928 6.91862 51.3822 6.72331 51.2324 6.56055C51.0892 6.39128 50.9069 6.26107 50.6855 6.16992C50.4707 6.07227 50.2168 6.02344 49.9238 6.02344C49.7936 6.02344 49.6667 6.0332 49.543 6.05273C49.4193 6.06576 49.2988 6.08854 49.1816 6.12109L49.0254 9.75391H49.2598C49.5397 9.75391 49.8229 9.7181 50.1094 9.64648C50.4023 9.57487 50.6628 9.46419 50.8906 9.31445C51.125 9.16471 51.3138 8.97266 51.457 8.73828C51.6068 8.50391 51.6816 8.22396 51.6816 7.89844ZM67.082 3.23047L66.9844 7.37109L64.0742 7.48828L63.7227 16.5508L59.6016 16.7656L59.2305 7.70312L56.3203 7.85938L56.4375 3.25L67.082 3.23047Z" fill="#E8E8E8"/>
<path d="M13.498 33.8047C13.498 34.6966 13.3418 35.4779 13.0293 36.1484C12.7233 36.8125 12.3001 37.3659 11.7598 37.8086C11.2259 38.2513 10.5977 38.5833 9.875 38.8047C9.15885 39.026 8.38737 39.1367 7.56055 39.1367C7.24154 39.1367 6.88997 39.0944 6.50586 39.0098C6.12826 38.9251 5.74414 38.821 5.35352 38.6973C4.96289 38.5671 4.58529 38.4303 4.2207 38.2871C3.86263 38.1374 3.54362 37.9974 3.26367 37.8672L3.69336 33.8438C4.24674 34.1758 4.85872 34.4297 5.5293 34.6055C6.20638 34.7747 6.87044 34.8594 7.52148 34.8594C7.64518 34.8594 7.79492 34.8561 7.9707 34.8496C8.14648 34.8366 8.3125 34.8073 8.46875 34.7617C8.63151 34.7096 8.76823 34.6348 8.87891 34.5371C8.98958 34.4395 9.04492 34.2995 9.04492 34.1172C9.04492 33.9935 9.00586 33.8893 8.92773 33.8047C8.84961 33.7135 8.7487 33.6419 8.625 33.5898C8.5013 33.5312 8.36133 33.4889 8.20508 33.4629C8.04883 33.4303 7.89583 33.4076 7.74609 33.3945C7.59635 33.3815 7.45638 33.375 7.32617 33.375C7.19596 33.375 7.0918 33.375 7.01367 33.375C6.45378 33.375 5.94271 33.2773 5.48047 33.082C5.02474 32.8867 4.63086 32.6165 4.29883 32.2715C3.97331 31.9199 3.7194 31.5065 3.53711 31.0312C3.35482 30.5495 3.26367 30.0286 3.26367 29.4688C3.26367 28.7005 3.41667 28.0137 3.72266 27.4082C4.03516 26.7962 4.44857 26.2786 4.96289 25.8555C5.48372 25.4258 6.07943 25.097 6.75 24.8691C7.42057 24.6413 8.11393 24.5273 8.83008 24.5273C9.14909 24.5273 9.47786 24.5404 9.81641 24.5664C10.1549 24.5859 10.4902 24.625 10.8223 24.6836C11.1608 24.7422 11.4896 24.8171 11.8086 24.9082C12.1276 24.9993 12.4303 25.1133 12.7168 25.25L12.3457 29.2148C11.903 29.0651 11.4375 28.9414 10.9492 28.8438C10.4674 28.7396 9.99544 28.6875 9.5332 28.6875C9.44857 28.6875 9.33789 28.6908 9.20117 28.6973C9.07096 28.6973 8.93099 28.707 8.78125 28.7266C8.63802 28.7396 8.49154 28.7624 8.3418 28.7949C8.19206 28.8275 8.05859 28.873 7.94141 28.9316C7.82422 28.9837 7.72982 29.0553 7.6582 29.1465C7.58659 29.2376 7.55404 29.3451 7.56055 29.4688C7.56706 29.612 7.61914 29.7292 7.7168 29.8203C7.82096 29.9049 7.95117 29.9733 8.10742 30.0254C8.27018 30.071 8.44596 30.1035 8.63477 30.123C8.83008 30.1426 9.02214 30.1556 9.21094 30.1621C9.39974 30.1621 9.57552 30.1621 9.73828 30.1621C9.90104 30.1556 10.0345 30.1589 10.1387 30.1719C10.6595 30.2044 11.1283 30.3151 11.5449 30.5039C11.9616 30.6927 12.3132 30.9434 12.5996 31.2559C12.8926 31.5684 13.1139 31.9427 13.2637 32.3789C13.4199 32.8086 13.498 33.2839 13.498 33.8047ZM25.7148 38.6094L20.832 38.8438L20.793 34.7227H18.5469L18.4102 39H14.0352L14.4062 25.2695L19.0547 25.4844L18.7617 32.4961H20.9297L20.9492 25.1523L25.4023 25.2695L25.7148 38.6094ZM38.7129 31.5195C38.7129 32.112 38.6445 32.6849 38.5078 33.2383C38.3711 33.7852 38.1725 34.2995 37.9121 34.7812C37.6582 35.263 37.3457 35.7057 36.9746 36.1094C36.61 36.5065 36.1966 36.8483 35.7344 37.1348C35.2786 37.4212 34.7806 37.6458 34.2402 37.8086C33.6999 37.9648 33.127 38.043 32.5215 38.043C31.9355 38.043 31.3757 37.9681 30.8418 37.8184C30.3145 37.6686 29.8197 37.4603 29.3574 37.1934C28.8952 36.9199 28.4753 36.5944 28.0977 36.2168C27.7266 35.8327 27.4076 35.4095 27.1406 34.9473C26.8802 34.4785 26.6751 33.9772 26.5254 33.4434C26.3822 32.9095 26.3105 32.3529 26.3105 31.7734C26.3105 31.207 26.3789 30.6536 26.5156 30.1133C26.6523 29.5664 26.8477 29.0521 27.1016 28.5703C27.362 28.0885 27.6745 27.6458 28.0391 27.2422C28.4036 26.8385 28.8105 26.4902 29.2598 26.1973C29.7155 25.9043 30.207 25.6764 30.7344 25.5137C31.2617 25.3509 31.8184 25.2695 32.4043 25.2695C33.3483 25.2695 34.2077 25.416 34.9824 25.709C35.7637 26.002 36.4277 26.4219 36.9746 26.9688C37.528 27.5091 37.9544 28.1667 38.2539 28.9414C38.5599 29.7096 38.7129 30.569 38.7129 31.5195ZM34.377 31.7734C34.377 31.4935 34.3346 31.2233 34.25 30.9629C34.1719 30.696 34.0547 30.4616 33.8984 30.2598C33.7422 30.0514 33.5469 29.8854 33.3125 29.7617C33.0846 29.6315 32.821 29.5664 32.5215 29.5664C32.2155 29.5664 31.9421 29.6217 31.7012 29.7324C31.4603 29.8431 31.252 29.9961 31.0762 30.1914C30.9069 30.3802 30.7767 30.6048 30.6855 30.8652C30.5944 31.1191 30.5488 31.3893 30.5488 31.6758C30.5488 31.9492 30.5879 32.2227 30.666 32.4961C30.7441 32.7695 30.8613 33.0169 31.0176 33.2383C31.1738 33.4596 31.3659 33.6387 31.5938 33.7754C31.8281 33.9121 32.0983 33.9805 32.4043 33.9805C32.7103 33.9805 32.9837 33.9219 33.2246 33.8047C33.472 33.681 33.6803 33.5182 33.8496 33.3164C34.0189 33.1081 34.1491 32.8704 34.2402 32.6035C34.3314 32.3366 34.377 32.0599 34.377 31.7734ZM50.7734 29.9961C50.7734 30.6276 50.679 31.1875 50.4902 31.6758C50.3014 32.1641 50.041 32.5938 49.709 32.9648C49.3835 33.3294 48.9993 33.6387 48.5566 33.8926C48.1139 34.14 47.6387 34.3451 47.1309 34.5078C46.6296 34.6641 46.1087 34.7812 45.5684 34.8594C45.028 34.931 44.4974 34.9701 43.9766 34.9766V39.1367H39.4258C39.4258 38.3945 39.4258 37.6719 39.4258 36.9688C39.4323 36.2656 39.4355 35.569 39.4355 34.8789C39.4421 34.1823 39.4453 33.4824 39.4453 32.7793C39.4518 32.0762 39.4583 31.3503 39.4648 30.6016C39.4779 29.8073 39.4811 29.013 39.4746 28.2188C39.4681 27.4245 39.4844 26.6237 39.5234 25.8164C40.3568 25.569 41.1901 25.3835 42.0234 25.2598C42.8568 25.1361 43.7161 25.0742 44.6016 25.0742C45.1029 25.0742 45.6042 25.1165 46.1055 25.2012C46.6068 25.2793 47.0853 25.4062 47.541 25.582C48.0033 25.7578 48.4297 25.9792 48.8203 26.2461C49.2174 26.5065 49.5592 26.819 49.8457 27.1836C50.1322 27.5482 50.3568 27.9648 50.5195 28.4336C50.6888 28.9023 50.7734 29.4232 50.7734 29.9961ZM46.4375 30.3281C46.4375 29.9049 46.3073 29.5762 46.0469 29.3418C45.793 29.1009 45.4609 28.9805 45.0508 28.9805C44.9141 28.9805 44.7708 28.9935 44.6211 29.0195C44.4779 29.0391 44.3411 29.0651 44.2109 29.0977L44.0938 31.9492C44.1849 31.9622 44.2728 31.9688 44.3574 31.9688C44.4421 31.9688 44.5299 31.9688 44.6211 31.9688C44.8555 31.9688 45.0801 31.9297 45.2949 31.8516C45.5163 31.7734 45.7116 31.6628 45.8809 31.5195C46.0501 31.3698 46.1836 31.1973 46.2812 31.002C46.3854 30.8001 46.4375 30.5755 46.4375 30.3281Z" fill="#F28123"/>
<path d="M56.2054 23.65L54.9423 30.8V33.66H56.2054V42.24H68.8365V33.66H73.8889V42.24H76.4152V33.66H77.6783V30.8L76.4152 23.65H56.2054ZM66.3103 39.38H58.7316V33.66H66.3103V39.38ZM57.519 30.8L58.2769 26.51H74.3437L75.1015 30.8H57.519ZM76.4152 22.22H56.2054V19.36H76.4152V22.22ZM82.7307 23.65V32.23H80.2045V23.65H82.7307ZM80.2045 35.09H82.7307V37.95H80.2045V35.09Z" fill="#E8E8E8"/>
</svg>
